<mxfile host="app.diagrams.net" modified="2023-10-10T12:16:26.861Z" agent="Mozilla/5.0 (X11; Ubuntu; Linux x86_64; rv:109.0) Gecko/20100101 Firefox/118.0" etag="NtuxmBZ21DT2OIMeglp3" version="22.0.4" type="github">
  <diagram name="Page-1" id="ohGzNpQo8HC6i82rPRUq">
    <mxGraphModel dx="4935" dy="-3960" grid="1" gridSize="10" guides="1" tooltips="1" connect="1" arrows="1" fold="1" page="1" pageScale="1" pageWidth="1200" pageHeight="1920" math="0" shadow="0">
      <root>
        <mxCell id="0" />
        <mxCell id="1" parent="0" />
        <mxCell id="q40FpV5YxcwD5uP6X1Z3-1" value="" style="shape=flexArrow;endArrow=classic;html=1;rounded=0;labelBackgroundColor=default;strokeColor=#75787B;fontFamily=Arial;fontSize=24;fontColor=#75787B;startSize=8;endSize=8;curved=1;fillColor=#E3E4E5;entryX=1;entryY=0.5;entryDx=0;entryDy=0;" edge="1" parent="1" target="q40FpV5YxcwD5uP6X1Z3-13">
          <mxGeometry width="50" height="50" relative="1" as="geometry">
            <mxPoint x="-602.3299999999999" y="8480" as="sourcePoint" />
            <mxPoint x="847.6700000000001" y="8250" as="targetPoint" />
            <Array as="points">
              <mxPoint x="-602.3299999999999" y="7920" />
              <mxPoint x="877.6700000000001" y="7920" />
              <mxPoint x="877.6700000000001" y="8200" />
            </Array>
          </mxGeometry>
        </mxCell>
        <mxCell id="q40FpV5YxcwD5uP6X1Z3-2" value="" style="shape=flexArrow;endArrow=classic;html=1;rounded=0;labelBackgroundColor=default;strokeColor=#75787B;fontFamily=Arial;fontSize=24;fontColor=#75787B;startSize=8;endSize=8;curved=1;fillColor=#E3E4E5;entryX=1;entryY=0.25;entryDx=0;entryDy=0;" edge="1" parent="1" target="q40FpV5YxcwD5uP6X1Z3-13">
          <mxGeometry width="50" height="50" relative="1" as="geometry">
            <mxPoint x="-524.8299999999999" y="8200" as="sourcePoint" />
            <mxPoint x="317.6700000000001" y="7940" as="targetPoint" />
            <Array as="points">
              <mxPoint x="-524.3299999999999" y="8000" />
              <mxPoint x="797.6700000000001" y="8000" />
              <mxPoint x="797.6700000000001" y="8160" />
            </Array>
          </mxGeometry>
        </mxCell>
        <mxCell id="q40FpV5YxcwD5uP6X1Z3-3" value="" style="shape=flexArrow;endArrow=classic;html=1;rounded=0;labelBackgroundColor=default;strokeColor=#75787B;fontFamily=Arial;fontSize=24;fontColor=#75787B;startSize=8;endSize=8;curved=1;fillColor=#E3E4E5;entryX=0.5;entryY=1;entryDx=0;entryDy=0;" edge="1" parent="1" target="q40FpV5YxcwD5uP6X1Z3-6">
          <mxGeometry width="50" height="50" relative="1" as="geometry">
            <mxPoint x="395.1700000000001" y="8480" as="sourcePoint" />
            <mxPoint x="-39.659999999999854" y="8560" as="targetPoint" />
            <Array as="points">
              <mxPoint x="395.1700000000001" y="8640" />
              <mxPoint x="-803.3299999999999" y="8640" />
            </Array>
          </mxGeometry>
        </mxCell>
        <mxCell id="q40FpV5YxcwD5uP6X1Z3-4" value="" style="shape=flexArrow;endArrow=classic;html=1;rounded=0;labelBackgroundColor=default;strokeColor=#75787B;fontFamily=Arial;fontSize=24;fontColor=#75787B;startSize=8;endSize=8;curved=1;fillColor=#E3E4E5;entryX=0.5;entryY=0;entryDx=0;entryDy=0;" edge="1" parent="1" target="q40FpV5YxcwD5uP6X1Z3-13">
          <mxGeometry width="50" height="50" relative="1" as="geometry">
            <mxPoint x="-84.82999999999993" y="8200" as="sourcePoint" />
            <mxPoint x="575.1700000000001" y="8030" as="targetPoint" />
            <Array as="points">
              <mxPoint x="-85.32999999999993" y="8080" />
              <mxPoint x="514.6700000000001" y="8080" />
            </Array>
          </mxGeometry>
        </mxCell>
        <mxCell id="q40FpV5YxcwD5uP6X1Z3-5" value="" style="shape=flexArrow;endArrow=classic;html=1;rounded=0;labelBackgroundColor=default;strokeColor=#75787B;fontFamily=Arial;fontSize=24;fontColor=#75787B;startSize=8;endSize=8;curved=1;fillColor=#E3E4E5;entryX=0.5;entryY=1;entryDx=0;entryDy=0;" edge="1" parent="1" target="q40FpV5YxcwD5uP6X1Z3-12">
          <mxGeometry width="50" height="50" relative="1" as="geometry">
            <mxPoint x="395.1700000000001" y="8480" as="sourcePoint" />
            <mxPoint x="555.1700000000001" y="8360" as="targetPoint" />
            <Array as="points">
              <mxPoint x="395.1700000000001" y="8360" />
              <mxPoint x="115.17000000000007" y="8360" />
            </Array>
          </mxGeometry>
        </mxCell>
        <mxCell id="q40FpV5YxcwD5uP6X1Z3-6" value="" style="rounded=0;whiteSpace=wrap;html=1;fontSize=16;fillColor=#003057;strokeColor=#003057;opacity=80;" vertex="1" parent="1">
          <mxGeometry x="-961.9999999999997" y="8400" width="317.27" height="160" as="geometry" />
        </mxCell>
        <mxCell id="q40FpV5YxcwD5uP6X1Z3-7" value="" style="rounded=0;whiteSpace=wrap;html=1;fontSize=16;fillColor=#003057;strokeColor=#003057;opacity=80;" vertex="1" parent="1">
          <mxGeometry x="-44.41000000000008" y="8400" width="317.27" height="160" as="geometry" />
        </mxCell>
        <mxCell id="q40FpV5YxcwD5uP6X1Z3-8" value="" style="shape=flexArrow;endArrow=classic;html=1;rounded=0;labelBackgroundColor=default;strokeColor=#75787B;fontFamily=Arial;fontSize=24;fontColor=#75787B;startSize=8;endSize=8;curved=1;exitX=1;exitY=0.5;exitDx=0;exitDy=0;fillColor=#E3E4E5;" edge="1" parent="1" source="q40FpV5YxcwD5uP6X1Z3-6">
          <mxGeometry width="50" height="50" relative="1" as="geometry">
            <mxPoint x="-158.47000000000003" y="8450" as="sourcePoint" />
            <mxPoint x="-312.3299999999999" y="8480" as="targetPoint" />
          </mxGeometry>
        </mxCell>
        <mxCell id="q40FpV5YxcwD5uP6X1Z3-9" value="&lt;div style=&quot;font-size: 30px;&quot;&gt;&lt;font style=&quot;font-size: 30px;&quot; color=&quot;#e3e4e5&quot;&gt;Sterownik&lt;/font&gt;&lt;/div&gt;&lt;div style=&quot;font-size: 30px;&quot;&gt;&lt;font style=&quot;font-size: 30px;&quot; color=&quot;#e3e4e5&quot;&gt;bazowy&lt;br&gt;&lt;/font&gt;&lt;/div&gt;" style="text;html=1;strokeColor=none;fillColor=none;align=center;verticalAlign=middle;whiteSpace=wrap;rounded=0;fontSize=24;fontFamily=Arial;fontColor=default;" vertex="1" parent="1">
          <mxGeometry x="-897.3699999999999" y="8470" width="197.37" height="25" as="geometry" />
        </mxCell>
        <mxCell id="q40FpV5YxcwD5uP6X1Z3-10" value="&lt;div style=&quot;font-size: 30px;&quot;&gt;&lt;font style=&quot;font-size: 30px;&quot; color=&quot;#e3e4e5&quot;&gt;System podrzÄ™dny +&lt;/font&gt;&lt;/div&gt;&lt;div style=&quot;font-size: 30px;&quot;&gt;&lt;font style=&quot;font-size: 30px;&quot; color=&quot;#e3e4e5&quot;&gt;Obiekt sterowany&lt;/font&gt;&lt;/div&gt;" style="text;html=1;strokeColor=none;fillColor=none;align=center;verticalAlign=middle;whiteSpace=wrap;rounded=0;fontSize=24;fontFamily=Arial;fontColor=default;" vertex="1" parent="1">
          <mxGeometry x="-16.980000000000018" y="8440.75" width="264.4" height="83.5" as="geometry" />
        </mxCell>
        <mxCell id="q40FpV5YxcwD5uP6X1Z3-11" value="" style="rounded=0;whiteSpace=wrap;html=1;fontSize=16;fillColor=#003057;strokeColor=#003057;opacity=80;" vertex="1" parent="1">
          <mxGeometry x="-443.3399999999999" y="8120" width="317.27" height="160" as="geometry" />
        </mxCell>
        <mxCell id="q40FpV5YxcwD5uP6X1Z3-12" value="" style="rounded=0;whiteSpace=wrap;html=1;fontSize=16;fillColor=#003057;strokeColor=#003057;opacity=80;" vertex="1" parent="1">
          <mxGeometry x="-43.41000000000008" y="8120" width="317.27" height="160" as="geometry" />
        </mxCell>
        <mxCell id="q40FpV5YxcwD5uP6X1Z3-13" value="" style="rounded=0;whiteSpace=wrap;html=1;fontSize=16;fillColor=#003057;strokeColor=#003057;opacity=80;" vertex="1" parent="1">
          <mxGeometry x="355.9000000000001" y="8120" width="317.27" height="160" as="geometry" />
        </mxCell>
        <mxCell id="q40FpV5YxcwD5uP6X1Z3-14" value="&lt;font style=&quot;font-size: 30px;&quot; color=&quot;#e3e4e5&quot;&gt;Model predykcyjny&lt;br&gt;&lt;/font&gt;" style="text;html=1;strokeColor=none;fillColor=none;align=center;verticalAlign=middle;whiteSpace=wrap;rounded=0;fontSize=24;fontFamily=Arial;fontColor=default;" vertex="1" parent="1">
          <mxGeometry x="417.52" y="8185" width="199.47" height="30" as="geometry" />
        </mxCell>
        <mxCell id="q40FpV5YxcwD5uP6X1Z3-15" value="" style="shape=flexArrow;endArrow=classic;html=1;rounded=0;labelBackgroundColor=default;strokeColor=#75787B;fontFamily=Arial;fontSize=24;fontColor=#75787B;startSize=8;endSize=8;curved=1;fillColor=#E3E4E5;entryX=1;entryY=0.75;entryDx=0;entryDy=0;exitX=1;exitY=0.5;exitDx=0;exitDy=0;" edge="1" parent="1" source="q40FpV5YxcwD5uP6X1Z3-7" target="q40FpV5YxcwD5uP6X1Z3-13">
          <mxGeometry width="50" height="50" relative="1" as="geometry">
            <mxPoint x="598.8400000000001" y="8560" as="sourcePoint" />
            <mxPoint x="997.8400000000001" y="8360" as="targetPoint" />
            <Array as="points">
              <mxPoint x="795.1700000000001" y="8480" />
              <mxPoint x="795.6700000000001" y="8240" />
            </Array>
          </mxGeometry>
        </mxCell>
        <mxCell id="q40FpV5YxcwD5uP6X1Z3-16" value="" style="shape=flexArrow;endArrow=classic;html=1;rounded=0;labelBackgroundColor=default;strokeColor=#75787B;fontFamily=Arial;fontSize=24;fontColor=#75787B;startSize=8;endSize=8;curved=1;exitX=0;exitY=0.5;exitDx=0;exitDy=0;fillColor=#E3E4E5;entryX=1;entryY=0.5;entryDx=0;entryDy=0;" edge="1" parent="1" source="q40FpV5YxcwD5uP6X1Z3-13" target="q40FpV5YxcwD5uP6X1Z3-12">
          <mxGeometry width="50" height="50" relative="1" as="geometry">
            <mxPoint x="239.17000000000007" y="8280" as="sourcePoint" />
            <mxPoint x="400.1700000000001" y="8280" as="targetPoint" />
          </mxGeometry>
        </mxCell>
        <mxCell id="q40FpV5YxcwD5uP6X1Z3-17" value="" style="shape=flexArrow;endArrow=classic;html=1;rounded=0;labelBackgroundColor=default;strokeColor=#75787B;fontFamily=Arial;fontSize=24;fontColor=#75787B;startSize=8;endSize=8;curved=1;exitX=0;exitY=0.5;exitDx=0;exitDy=0;fillColor=#E3E4E5;entryX=1;entryY=0.5;entryDx=0;entryDy=0;" edge="1" parent="1">
          <mxGeometry width="50" height="50" relative="1" as="geometry">
            <mxPoint x="-43.409999999999854" y="8199.63" as="sourcePoint" />
            <mxPoint x="-125.40999999999985" y="8199.63" as="targetPoint" />
          </mxGeometry>
        </mxCell>
        <mxCell id="q40FpV5YxcwD5uP6X1Z3-18" value="&lt;font style=&quot;font-size: 30px;&quot; color=&quot;#e3e4e5&quot;&gt;Prawo adaptacyjne&lt;br&gt;&lt;/font&gt;" style="text;html=1;strokeColor=none;fillColor=none;align=center;verticalAlign=middle;whiteSpace=wrap;rounded=0;fontSize=24;fontFamily=Arial;fontColor=default;" vertex="1" parent="1">
          <mxGeometry x="11.470000000000027" y="8185" width="199.47" height="30" as="geometry" />
        </mxCell>
        <mxCell id="q40FpV5YxcwD5uP6X1Z3-19" value="&lt;font style=&quot;font-size: 30px;&quot; color=&quot;#e3e4e5&quot;&gt;Filtr dolnoprzpustowy&lt;br&gt;&lt;/font&gt;" style="text;html=1;strokeColor=none;fillColor=none;align=center;verticalAlign=middle;whiteSpace=wrap;rounded=0;fontSize=24;fontFamily=Arial;fontColor=default;" vertex="1" parent="1">
          <mxGeometry x="-388.3699999999999" y="8185" width="199.47" height="30" as="geometry" />
        </mxCell>
        <mxCell id="q40FpV5YxcwD5uP6X1Z3-20" value="" style="shape=flexArrow;endArrow=classic;html=1;rounded=0;labelBackgroundColor=default;strokeColor=#75787B;fontFamily=Arial;fontSize=24;fontColor=#75787B;startSize=8;endSize=8;curved=1;fillColor=#E3E4E5;exitX=0;exitY=0.5;exitDx=0;exitDy=0;" edge="1" parent="1" source="q40FpV5YxcwD5uP6X1Z3-11" target="q40FpV5YxcwD5uP6X1Z3-21">
          <mxGeometry width="50" height="50" relative="1" as="geometry">
            <mxPoint x="-499.8299999999999" y="8245" as="sourcePoint" />
            <mxPoint x="-284.8299999999999" y="8470" as="targetPoint" />
            <Array as="points">
              <mxPoint x="-524.8299999999999" y="8200" />
              <mxPoint x="-524.8299999999999" y="8320" />
              <mxPoint x="-284.8299999999999" y="8320" />
            </Array>
          </mxGeometry>
        </mxCell>
        <mxCell id="q40FpV5YxcwD5uP6X1Z3-21" value="" style="ellipse;whiteSpace=wrap;html=1;fillColor=#003057;opacity=80;" vertex="1" parent="1">
          <mxGeometry x="-309.6999999999998" y="8455" width="50" height="50" as="geometry" />
        </mxCell>
        <mxCell id="q40FpV5YxcwD5uP6X1Z3-22" value="" style="shape=flexArrow;endArrow=classic;html=1;rounded=0;labelBackgroundColor=default;strokeColor=#75787B;fontFamily=Arial;fontSize=24;fontColor=#75787B;startSize=8;endSize=8;curved=1;exitX=1;exitY=0.5;exitDx=0;exitDy=0;fillColor=#E3E4E5;entryX=0;entryY=0.5;entryDx=0;entryDy=0;" edge="1" parent="1" source="q40FpV5YxcwD5uP6X1Z3-21" target="q40FpV5YxcwD5uP6X1Z3-7">
          <mxGeometry width="50" height="50" relative="1" as="geometry">
            <mxPoint x="50.700000000000045" y="8479.29" as="sourcePoint" />
            <mxPoint x="188.70000000000005" y="8479.29" as="targetPoint" />
          </mxGeometry>
        </mxCell>
        <mxCell id="q40FpV5YxcwD5uP6X1Z3-23" value="&lt;font color=&quot;#75787b&quot;&gt;$$\mathbf{p}_{zad}$$&lt;/font&gt;" style="text;html=1;strokeColor=none;fillColor=none;align=center;verticalAlign=middle;whiteSpace=wrap;rounded=0;fontSize=24;fontFamily=Arial;fontStyle=1;labelBackgroundColor=none;labelBorderColor=none;" vertex="1" parent="1">
          <mxGeometry x="-1072" y="8435" width="74.5" height="30" as="geometry" />
        </mxCell>
        <mxCell id="q40FpV5YxcwD5uP6X1Z3-24" value="&lt;div style=&quot;font-size: 30px;&quot;&gt;&lt;b style=&quot;font-size: 30px;&quot;&gt;$$\textbf{u}_{adapt}$$&lt;/b&gt;&lt;/div&gt;" style="text;html=1;strokeColor=none;fillColor=none;align=center;verticalAlign=middle;whiteSpace=wrap;rounded=0;fontSize=30;fontFamily=Arial;fontColor=#75787B;" vertex="1" parent="1">
          <mxGeometry x="-275.4399999999998" y="8390" width="135" height="30" as="geometry" />
        </mxCell>
        <mxCell id="q40FpV5YxcwD5uP6X1Z3-25" value="&lt;div style=&quot;font-size: 30px;&quot;&gt;&lt;b style=&quot;font-size: 30px;&quot;&gt;$$\textbf{u}_{base}$$&lt;/b&gt;&lt;/div&gt;" style="text;html=1;strokeColor=none;fillColor=none;align=center;verticalAlign=middle;whiteSpace=wrap;rounded=0;fontSize=30;fontFamily=Arial;fontColor=#75787B;" vertex="1" parent="1">
          <mxGeometry x="-444.6999999999998" y="8425" width="135" height="30" as="geometry" />
        </mxCell>
        <mxCell id="q40FpV5YxcwD5uP6X1Z3-26" value="&lt;div style=&quot;font-size: 30px;&quot;&gt;&lt;font color=&quot;#75787b&quot; face=&quot;Arial&quot; style=&quot;font-size: 30px;&quot;&gt;&lt;b style=&quot;font-size: 30px;&quot;&gt;$$\boldsymbol{\hat{\sigma}}$$&lt;/b&gt;&lt;/font&gt;&lt;/div&gt;" style="text;html=1;strokeColor=none;fillColor=none;align=center;verticalAlign=middle;whiteSpace=wrap;rounded=0;fontSize=30;" vertex="1" parent="1">
          <mxGeometry x="200.26" y="8040" width="31" height="30" as="geometry" />
        </mxCell>
        <mxCell id="q40FpV5YxcwD5uP6X1Z3-27" value="&lt;div style=&quot;font-size: 30px;&quot;&gt;&lt;b style=&quot;font-size: 30px;&quot;&gt;$$\textbf{u}$$&lt;/b&gt;&lt;/div&gt;" style="text;html=1;strokeColor=none;fillColor=none;align=center;verticalAlign=middle;whiteSpace=wrap;rounded=0;fontSize=30;fontFamily=Arial;fontColor=#75787B;" vertex="1" parent="1">
          <mxGeometry x="-152.32999999999993" y="8425" width="135" height="30" as="geometry" />
        </mxCell>
        <mxCell id="q40FpV5YxcwD5uP6X1Z3-28" value="&lt;div style=&quot;font-size: 30px;&quot;&gt;&lt;b style=&quot;font-size: 30px;&quot;&gt;$$\textbf{x}$$&lt;/b&gt;&lt;/div&gt;" style="text;html=1;strokeColor=none;fillColor=none;align=center;verticalAlign=middle;whiteSpace=wrap;rounded=0;fontSize=30;fontFamily=Arial;fontColor=#75787B;" vertex="1" parent="1">
          <mxGeometry x="86.67000000000007" y="8300" width="135" height="30" as="geometry" />
        </mxCell>
        <mxCell id="q40FpV5YxcwD5uP6X1Z3-29" value="&lt;div style=&quot;font-size: 30px;&quot;&gt;&lt;b style=&quot;font-size: 30px;&quot;&gt;$$\mathbf{\hat{x}}$$&lt;/b&gt;&lt;/div&gt;" style="text;html=1;strokeColor=none;fillColor=none;align=center;verticalAlign=middle;whiteSpace=wrap;rounded=0;fontSize=30;fontFamily=Arial;fontColor=#75787B;" vertex="1" parent="1">
          <mxGeometry x="248.17000000000007" y="8150" width="135" height="30" as="geometry" />
        </mxCell>
        <mxCell id="q40FpV5YxcwD5uP6X1Z3-30" value="&lt;div style=&quot;font-size: 30px;&quot;&gt;&lt;b style=&quot;font-size: 30px;&quot;&gt;$$\textbf{x}$$&lt;/b&gt;&lt;/div&gt;" style="text;html=1;strokeColor=none;fillColor=none;align=center;verticalAlign=middle;whiteSpace=wrap;rounded=0;fontSize=30;fontFamily=Arial;fontColor=#75787B;" vertex="1" parent="1">
          <mxGeometry x="668.6700000000001" y="8250" width="135" height="30" as="geometry" />
        </mxCell>
        <mxCell id="q40FpV5YxcwD5uP6X1Z3-31" value="&lt;div style=&quot;font-size: 30px;&quot;&gt;&lt;b style=&quot;font-size: 30px;&quot;&gt;$$\textbf{x}$$&lt;/b&gt;&lt;/div&gt;" style="text;html=1;strokeColor=none;fillColor=none;align=center;verticalAlign=middle;whiteSpace=wrap;rounded=0;fontSize=30;fontFamily=Arial;fontColor=#75787B;" vertex="1" parent="1">
          <mxGeometry x="-828.2099999999998" y="8580" width="135" height="30" as="geometry" />
        </mxCell>
        <mxCell id="q40FpV5YxcwD5uP6X1Z3-32" value="" style="shape=flexArrow;endArrow=classic;html=1;rounded=0;labelBackgroundColor=default;strokeColor=#75787B;fontFamily=Arial;fontSize=24;fontColor=#75787B;startSize=8;endSize=8;curved=1;exitX=1;exitY=0.5;exitDx=0;exitDy=0;fillColor=#E3E4E5;entryX=0;entryY=0.5;entryDx=0;entryDy=0;" edge="1" parent="1">
          <mxGeometry width="50" height="50" relative="1" as="geometry">
            <mxPoint x="-1100" y="8479.519999999999" as="sourcePoint" />
            <mxPoint x="-961.9999999999999" y="8479.519999999999" as="targetPoint" />
          </mxGeometry>
        </mxCell>
        <mxCell id="q40FpV5YxcwD5uP6X1Z3-33" value="&lt;div style=&quot;font-size: 30px;&quot;&gt;&lt;b style=&quot;font-size: 30px;&quot;&gt;$$\textbf{u}_{adapt}$$&lt;/b&gt;&lt;/div&gt;" style="text;html=1;strokeColor=none;fillColor=none;align=center;verticalAlign=middle;whiteSpace=wrap;rounded=0;fontSize=30;fontFamily=Arial;fontColor=#75787B;" vertex="1" parent="1">
          <mxGeometry x="148.26000000000022" y="7950" width="135" height="30" as="geometry" />
        </mxCell>
        <mxCell id="q40FpV5YxcwD5uP6X1Z3-34" value="&lt;div style=&quot;font-size: 30px;&quot;&gt;&lt;b style=&quot;font-size: 30px;&quot;&gt;$$\textbf{u}_{base}$$&lt;/b&gt;&lt;/div&gt;" style="text;html=1;strokeColor=none;fillColor=none;align=center;verticalAlign=middle;whiteSpace=wrap;rounded=0;fontSize=30;fontFamily=Arial;fontColor=#75787B;" vertex="1" parent="1">
          <mxGeometry x="148.26000000000022" y="7870" width="135" height="30" as="geometry" />
        </mxCell>
      </root>
    </mxGraphModel>
  </diagram>
</mxfile>
